<svg xmlns="http://www.w3.org/2000/svg" width="677" height="677"><path style="fill:#000000; stroke:none;" d="M512 404C507.787 432.528 485.979 461.688 465 480.155 379.737 555.21 243.814 533.739 183.053 438 135.423 362.95 142.38 259.172 209 197.09c18.758-17.481 40.088-31.017 64-40.279C292.738 149.165 314.851 145.103 336 145.001 369.569 144.839 402.886 153.481 432 170.284 442.306 176.232 452.008 183.511 461 191.289 465.296 195.004 469.691 200.374 476 199.743 484.976 198.846 493.075 186.925 499 181l55-55C560.167 119.833 573.79 110.632 573.79 101c0-10.3457-16.635-20.9691-23.79-26.9189-27.112-22.5445-58.943-40.2072-92-52.3998C326.908-26.6693 177.418 9.62 85.1559 115c-26.4517 30.213-46.2197 65.484-60.2061 103C-41.9669 397.491 61.4876 607.009 245 662.28 284.104 674.058 325.336 678.874 366 676.089 403.604 673.514 439.232 665.781 474 650.85 513.238 633.998 548.849 608.198 577.911 577c57.109-61.308 84.461-139.068 92.259-221C672.236 334.286 670.917 311.548 667.576 290 666.543 283.342 666.519 272.707 662.272 267.225 657.819 261.474 648.354 263 642 263H586 404 354C347.452 263 337.998 261.297 332.043 264.457 322.775 269.375 326 285.32 326 294v80C326 382.136 323.047 396.989 331.055 402.142 335.503 405.005 341.969 404 347 404h34H512M475 177h-1c-19.372-17.841-43.079-31.506-68-39.997C381.693 128.721 354.8 123.323 329 125.089 278.975 128.515 231.475 148.148 195 183.039 123.781 251.166 111.725 367.047 166.355 449 223.753 535.106 340.646 573.107 435 524.741c39.161-20.074 70.255-52.673 88.306-92.741C527.645 422.366 540.096 397.517 531.606 388.214 523.059 378.848 494.821 384 483 384H346V283H546C578.028 283 614.524 287.843 646 282 657.268 317.634 652.188 364.054 645 4e2 620.352 523.257 529.146 628.268 403 652.196 267.931 677.817 132.067 610.404 64.7191 492 37.2628 443.729 25 389.164 25 334c0-57.839 14.915-114.202 44.6042-164C103.054 113.895 156.283 67.7366 217 43.449c82.694-33.0786 181.907-31.223 262 8.7979 19.116 9.5517 37.246 20.4194 54 33.7569C536.872 89.0862 547.793 95.4578 547.793 101c0 6.47-14.444 16.651-18.793 21-18.161 18.161-35.824 36.824-54 55z"/></svg>