<svg xmlns="http://www.w3.org/2000/svg" width="699" height="699"><path style="fill:#000000; stroke:none;" d="M302 699V410H224V314h78C302 275.444 296.491 232.28 307.721 195 310.825 184.699 315.841 174.702 322.158 166 363.569 108.957 433.894 117 496 117v83C473.746 2e2 445.097 195.317 425 206.88c-20.539 11.817-21 33.188-21 54.12v53h91l-15 96H404V699C487.077 699 581.377 713.556 646.985 650.911 696.75 603.393 697 539.593 697 476V194C697 142.534 690.658 93.5175 653.911 54 624.558 22.4357 584.646 4.23114 542 .169739 516.798-2.23035 490.324.0 465 0 363.104.0 260.862-2.48047 159 .0146484 138.749.510742 117.033 6.75964 99 15.7531 85.4303 22.5205 72.4027 30.046 61 40.1729 30.1916 67.5341 9.80713 105.034 4.28858 146 .813429 171.797 2 198.014 2 224V341 468c0 66.928-.92324 132.077 50 183C61.5838 660.584 72.2872 669.253 84 676.139 97.9571 684.344 113.304 690.182 129 694.105 152.979 700.098 177.509 699 202 699H302z"/></svg>