<svg xmlns="http://www.w3.org/2000/svg" width="620" height="620"><path style="fill:#000000; stroke:none;" d="M422 227c35.123 26.997 79.002 44.108 123 49.05C555.344 277.212 579.333 283.073 587.442 274.606 592.276 269.558 591 261.376 591 255V208C591 195.367 594.691 175.794 589.852 164.04 585.583 153.671 567.174 155.854 558 154.41c-25.092-3.952-48.949-13.714-69-29.425C465.252 106.377 448.874 79.7725 440.424 51 437.344 40.5104 435.276 29.7929 433.59 19 432.775 13.7805 433.333 7.53882 429.431 3.39429 423.429-2.98212 407.985.0 4e2.0H341C331.467.0 320.349-1.57672 311 .344116 298.678 2.87592 302 19.7598 302 29v88V371C302 407.421 308.831 449.876 279.91 477.829 272.581 484.914 263.586 490.81 254 494.305 190.096 517.603 124.997 449.747 156.37 387c11.711-23.421 33.917-38.639 59.63-41.715C227.46 343.915 255.871 351.2 260.347 336.999 262.755 329.361 261 318.962 261 311V256C261 248.165 263.524 234.886 258.991 228.109 254.367 221.196 243.128 223 236 223 213.876 223 192.461 223.524 171 229.579 90.2918 252.351 33.6582 329.356 30.0394 412 25.394 518.085 109.092 612.658 215 619.911 243.86 621.887 273.298 615.913 3e2 605.2 320.764 596.868 340.627 584.156 357 568.911 391.676 536.622 414.845 493.172 420.714 446 424.139 418.468 422 389.727 422 362V227M413 21C420.433 78.5556 450.864 129.635 503 157.111c14.154 7.459 30.337 12.806 46 15.888C553.844 173.953 566.83 173.558 569.972 177.6 573.228 181.788 571 193.863 571 199v59c-42.33.0-85.154-13.065-121-35.425C440.092 216.394 419.015 193.488 407.105 203.419 398.774 210.365 402 226.324 402 236v90C402 369.749 407.764 418.173 397.765 461 378.643 542.898 306.958 598.651 224 600.545 98.4184 603.411 16.2822 457.957 64.8619 348 86.4329 299.176 130.523 259.055 183 246.654 202.154 242.128 221.465 243 241 243v83C212.946 326 186.542 327.007 164 346.3c-55.122 47.176-42.619 136.87 25 165.827C242.226 534.921 308.947 501.341 320.196 444 323.578 426.761 322 408.506 322 391V302 21h91z"/></svg>