<svg xmlns="http://www.w3.org/2000/svg" width="771" height="771"><path style="fill:#000000; stroke:none;" d="M318 105.424C296.797 108.208 274.381 106.103 253 107.039 217.263 108.604 181.6 111.02 146 114.834c-34.477 3.694-70.1271 9.664-98 31.832C17.1562 171.197 5.36513 219.193 3.9892 257 .895516 342.005-4.66451 428.034 3.83102 513 7.99281 554.623 16.2544 599.922 52 626.522 98.3165 660.988 170.203 657.337 225 661.089 304.315 666.521 384.532 667.519 464 664.039 523.463 661.436 582.927 660.431 642 651.728 677.185 646.545 712.112 636.43 735.675 608 756.458 582.925 761.226 548.135 765.282 517 774.13 449.081 773.765 377.277 769.089 309 765.794 260.874 767.523 203.246 736.5 163c-27.169-35.247-70.98-43.187-112.5-48.155C567.803 108.12 511.433 108.432 455 105.961 425.725 104.679 396.352 105 367 105 350.971 105 333.894 103.337 318 105.424m1 24.862C346.896 126.994 376.898 130 405 130 471.64 130 538.727 132.204 605 138.831 644.18 142.749 689.141 145.5 715.482 179 741.933 212.639 739.325 267.631 742.089 308 746.587 373.675 745.716 441.528 739.169 507 736.207 536.625 732.305 571.72 711.816 595 690.649 619.049 658.108 623.969 628 627.715 568.496 635.119 508.857 636.548 449 638.015 374.157 639.848 298.654 640.202 224 635.089 190.599 632.802 157.127 631.274 124 625.753 104.908 622.571 84.8293 618.351 69 606.486 39.055 584.041 34.2864 543.559 30.831 509c-8.0828-80.839-8.0828-165.162.0-246 3.4762-34.767 7.3511-76.347 37.169-99.321 21.7539-16.761 53.544-20.012 80-22.845C185.233 136.848 222.624 133.676 260 132.039 279.5 131.185 299.626 132.572 319 130.286M293.001 255.562C286.537 257.178 283.559 262.749 283.09 269 282.003 283.505 283 298.453 283 313V470C283 483.17 276.897 519.597 3e2 514.917 316.907 511.493 336.222 494.867 351 486c36.245-21.749 72.702-43.138 109-64.799C471.656 414.245 483.552 407.598 495 400.305 500.117 397.045 506.185 393.619 506.89 387 508.761 369.439 476.4 358.439 464 351c-41.371-24.819-83.396-48.576-125-73.011C329.029 272.133 319.038 266.32 309 260.579 304.174 257.818 298.834 254.103 293.001 255.562M472 384v1c-34.144 22.593-70.692 42.271-106 63.011-17.894 10.511-37.219 26.729-57 32.989V290C329.626 295.953 350.487 313.115 369 323.989c34.114 20.039 69.982 38.232 103 60.011z"/></svg>