<svg xmlns="http://www.w3.org/2000/svg" width="701" height="701"><path style="fill:#000000; stroke:none;" d="M329 235C311.226 234.631 292.119 228.385 275 223.884c-49.862-13.109-98.539-34.299-140-65.258-18.98-14.173-36.4572-29.929-54-45.796-8.4168-7.612-18.1941-19.4463-30-21.5013C31.6233 87.9561 25.2583 122.092 23.2855 136 16.2106 185.877 27.737 227.136 58 267 49.8136 264.631 37.6229 257.363 29.0154 260.742 22.7602 263.198 22.0291 270.193 22.0008 276 21.9352 289.426 23.7215 302.069 27.4275 315 35.3057 342.49 52.9985 369.785 75 387.916 82.7793 394.327 92.0498 401.615 102 404v1C94.9228 405 81.0825 402.348 75.5725 407.653 71.4166 411.654 73.5423 418.229 74.9097 423c3.5977 12.551 10.5353 24.549 18.2462 35C113.471 485.535 153.653 512.478 189 514c-35.052 29.875-88.38 46.963-134 48.961C41.1864 563.566 27.7815 562.977 14 563 8.85071 563.009 2.78329 563.173.782407 569.015-3.21494 580.688 19.3268 589.889 27 593.752 59.5477 610.141 93.2894 623.504 129 631.21 250.985 657.533 393.189 632.314 488 546.83 556.899 484.709 604.978 402.776 624.339 312 628.261 293.609 630.773 273.778 630.996 255 631.113 245.191 627.92 230.192 630.693 221.001 633.103 213.012 646.82 207.19 653 202.195 667.581 190.41 680.416 176.741 690.655 161 694.677 154.817 703.32 142.858 700.254 135.043 698.039 129.398 691.227 128.497 686 129.468 673.195 131.846 660.129 138.321 648 143 654.013 134.601 661.733 127.419 667.848 119 671.784 113.58 675.252 107.989 678.247 102 683.272 91.949 689.177 67.9329 669 71.6837c-19.697 3.6615-38.585 18.2398-57 26.0324C607.331 99.6918 596.425 105.995 591.424 104.444c-9.197-2.851-19.082-15.8944-27.424-21.3653-18.74-12.2911-40.745-20.8629-63-23.7893C420.474 48.701 344.756 100.173 329.611 181 326.508 197.56 324.142 218.603 329 235M660 95c-7.274 19.218-24.787 35.81-39 50C615.882 150.11 602.59 158.051 602.377 165.999 602.167 173.806 612.399 175.409 618 173.79c17.672-5.108 34.587-12.899 52-18.79C662.644 169.411 647.916 182.208 635 191.575 627.293 197.164 615.81 202.646 612.148 212 608.937 220.202 612 231.355 612 240 612 256.996 610.207 274.175 607.728 291 599.918 344.022 580.339 395.905 551.308 441c-23.33 36.24-50.738 70.26-84.308 97.54C383.584 606.327 270.61 632.812 165 618.13 125.89 612.693 82.618 602.701 48 583v-1c46.9904.0 97.694-15.191 137-40.861C194.947 534.642 205.945 527.076 213.696 517.996 216.972 514.159 220.442 508.979 217.254 504.044 213.879 498.82 207.518 498.709 202 497.75 190.698 495.786 179.925 492.511 169 489.116 139.239 479.865 104.968 454.129 96 423 108.492 423 122.947 425.004 135 421.225 140.334 419.553 146.493 415.385 145.728 409 144.95 402.511 138.242 399.922 133 397.799 119.922 392.504 107.557 386.939 96 378.703 66.4723 357.66 42 320.15 42 283 55.1379 284.154 68.1334 292.03 81 295.255 87.6372 296.918 94.8191 298.099 99.5625 291.945 103.82 286.422 99.0753 281.017 94.9846 277.09 83.3847 265.952 72.5919 255.128 63.1551 242 35.1282 203.01 38.0868 156.644 50 113c8.172 3.806 14.3149 11.818 21 17.714 16.0883 14.191 31.689 28.642 49 41.402C164.322 204.784 214.311 226.88 267 242 284.77 247.1 302.963 250.468 321 254.424 327.915 255.941 337.622 259.363 343.895 254.486 350.727 249.175 348.912 240.429 348.169 233 346.683 218.138 345.952 202.8 348.435 188 356.76 138.379 392.076 96.232 441 82.4283 475.307 72.7488 515.297 77.2481 546 95.4521 554.495 100.489 562.759 106.357 570 113.089 574.879 117.626 579.935 124.742 587 125.761 593.617 126.715 601.946 122.527 608 120.189c17.763-6.859 34.121-19.531 52-25.189z"/></svg>