<svg xmlns="http://www.w3.org/2000/svg" width="708" height="708"><path style="fill:#000000; stroke:none;" d="M159 .424377C138.427 3.12567 119.167 5.53223 1e2 14.3087 85.8789 20.7744 73.0412 29.0274 61 38.804-4.45554 91.9493.0 173.126.0 249V427c0 69.364-11.174 150.313 32.152 210C40.9997 649.189 50.3859 660.262 62 669.919 113.661 712.873 177.089 708 240 708H420C467.111 708 517.395 712.92 564 705.725 581.977 702.95 599.76 697.479 616 689.244 664.562 664.619 696.636 617.223 705.565 564 710.334 535.57 708 505.747 708 477V363 263c0-67.83 7.87-138.173-34.735-196C645.561 29.3972 601.891 6.77728 556 1.28552 529.399-1.89777 501.775.0 475 0H293 205c-15.057.0-31.068-1.53619-46 .424377M174 71.2855C207.712 67.3079 244.036 71 278 71H487C535.709 71 581.605 71.2762 614.101 114 641.432 149.933 636 194.573 636 237V448C636 485.278 641.345 526.974 630.562 563 619.475 600.037 585.709 626.901 548 632.725 509.311 638.701 468.075 635 429 635H216C170.053 635 121.631 635.272 91.4892 594 60.8723 552.078 70 493.834 70 445V248c0-32.089-5.541-70.137 4.5185-101C89.8049 100.1 127.08 76.8217 174 71.2855M541 123.429C525.36 125.372 512.012 133.504 506.548 149 497.337 175.119 518.919 204.789 547 201.826 597.487 196.499 591.666 117.135 541 123.429M340 165.424c-33.539 4.404-65.102 11.924-93 32.46-101.27 74.546-107.518 230.451-5 307.221 18.299 13.703 39.035 23.365 61 29.471C327.434 541.367 353.877 542.84 379 539.714 405.95 536.361 432.023 526.756 455 512.424c115.302-71.923 114.192-246.994-1-318.848-16.726-10.433-34.691-18.671-54-23C380.809 166.275 359.696 162.838 340 165.424m2 73.861C354.996 237.747 369.318 239.075 382 242.13c93.141 22.441 116.045 149.679 39 205.124-16.972 12.214-36.48 18.031-57 20.461C351.247 469.224 337.438 467.866 325 464.87c-92.541-22.291-115.271-151.501-38-205.828 16.275-11.442 35.428-17.44 55-19.757z"/></svg>