<svg xmlns="http://www.w3.org/2000/svg" width="638" height="638"><path style="fill:#000000; stroke:none;" d="M290 3.42438C247.833 8.96356 207.039 17.759 169 37.7809 62.2493 93.9698-8.2445 211.3.0895062 333 2.44654 367.419 8.52652 401.818 21.3997 434 25.7228 444.807 30.2509 455.871 36 466 39.2784 471.776 45.9783 480.003 46.8866 486.576 48.014 494.734 41.2999 507.066 39.1512 515 32.2578 540.453 24.3603 565.637 17.1404 591c-2.9852 10.487-13.21845 29.473-3.9159 38.775C22.8049 639.356 40.5552 629.148 51 625.667 74.7026 617.766 98.2965 609.568 122 601.667 132.023 598.326 142.666 593.152 153 591.148 159.931 589.804 168.067 596.785 174 599.753 189.563 607.54 205.402 614.358 222 619.656 267.193 634.081 315.967 638.491 363 632.845 406.865 627.579 449.548 612.394 487 588.95 637.533 494.722 683.534 288.892 584.329 141 563.159 109.44 535.893 82.3046 505 60.2909c-31.177-22.2164-66.864-38.4234-104-47.6644-34.686-8.63132-75.316-13.88962-111-9.20212M32 611c6.8413-29.572 17.0916-58.784 25.4213-88C60.6077 511.824 67.7688 497.719 67.2323 486 66.8017 476.596 58.438 467.098 54.2585 459c-9.2174-17.858-17.3078-36.645-22.831-56C8.11645 321.312 19.4359 229.815 65.6921 158 90.6276 119.286 124.588 87.0335 164 63.3997 304.481-20.8418 498.192 28.731 579.573 171c28.576 49.958 39.961 106.037 37.466 163C615.57 367.552 608.624 401.055 595.281 432c-13.871 32.169-31.833 62.64-56.27 88-27.734 28.781-59.219 53.754-96.011 70.139C379.598 618.375 306.808 623.637 240 604.573 221.079 599.173 202.765 591.612 185 583.219 176.799 579.345 167.251 570.924 158 570.471 146.637 569.915 132.601 577.464 122 581.139 102.071 588.047 82.0182 594.661 62 601.333 52.3189 604.56 42.0708 609.492 32 611M193 144.465C173.921 147.898 160.095 163.046 150.604 179 127.872 217.211 130.933 263.096 150.248 302 188.094 378.232 249.562 437.401 327 472.306c34.361 15.488 77.831 26.945 115 15.347 30.081-9.387 58.282-32.563 62.05-65.653C505.218 411.741 504.704 400.669 498.211 392.04 492.258 384.128 481.798 381.12 473 377.6 453.517 369.807 431.704 356.776 411 353.326 392.114 350.178 382.045 363.51 371.651 377 367.409 382.505 361.186 394.029 353 393.421 347.353 393.002 340.955 388.763 336 386.244 320.076 378.15 304.798 367.47 292 354.985c-14.172-13.824-27.54-28.079-39.37-43.985C248.44 305.367 241.745 298.029 240.297 291 239.037 284.886 245.183 280.66 249.004 276.961 255.824 270.357 263.695 262.723 265.532 253 270.219 228.199 248.831 198.053 239.421 176 235.507 166.826 232.172 155.847 223.996 149.532 215.723 143.143 202.977 142.669 193 144.465m8 18.825C212.453 161.854 215.315 170.146 219.306 179c8.208 18.21 16.753 36.423 24.093 55C253.02 258.349 223.187 263.011 219.471 284 217.862 293.09 223.705 302.638 228.319 310c10.494 16.743 22.859 32.838 36.851 46.83 18.445 18.445 39.154 33.791 61.83 46.594C337.713 409.473 350.48 415.693 363 411.779 376.114 407.68 383.388 394.482 391.011 384c5.428-7.464 10.053-14.05 19.989-10.56C427.882 379.37 444.377 387.131 461 393.8 467.399 396.368 477.98 398.78 482.486 404.214 487.593 410.372 484.996 422.32 482.385 429 474.871 448.223 457.383 461.805 438 467.971 405.982 478.158 370.197 468.88 340 456.8 265.785 427.113 206.655 367.054 169.781 297 152.779 264.7 147.833 227.354 164.756 194 172.229 179.272 183.744 165.454 201 163.29z"/></svg>